<svg width="24" height="24" viewBox="0 0 24 24" fill="none" xmlns="http://www.w3.org/2000/svg">
<path fill-rule="evenodd" clip-rule="evenodd" d="M10.5 22.4821C10.5 22.8796 10.658 23.2608 10.9393 23.5419C11.2206 23.823 11.6022 23.9809 12 23.9809C12.3978 23.9809 12.7794 23.823 13.0607 23.5419C13.342 23.2608 13.5 22.8796 13.5 22.4821V13.4892H22.5C22.8978 13.4892 23.2794 13.3313 23.5607 13.0503C23.842 12.7692 24 12.3879 24 11.9904C24 11.5929 23.842 11.2117 23.5607 10.9306C23.2794 10.6495 22.8978 10.4916 22.5 10.4916H13.5V1.4988C13.5 1.1013 13.342 0.72007 13.0607 0.43899C12.7794 0.157909 12.3978 0 12 0C11.6022 0 11.2206 0.157909 10.9393 0.43899C10.658 0.72007 10.5 1.1013 10.5 1.4988V10.4916H1.5C1.10218 10.4916 0.720644 10.6495 0.43934 10.9306C0.158035 11.2117 0 11.5929 0 11.9904C0 12.3879 0.158035 12.7692 0.43934 13.0503C0.720644 13.3313 1.10218 13.4892 1.5 13.4892H10.5V22.4821Z" fill="#F7F7F7"/>
</svg>
